<?xml version="1.0" encoding="UTF-8"?>
<svg id="Layer_2" xmlns="http://www.w3.org/2000/svg" xmlns:xlink="http://www.w3.org/1999/xlink" version="1.1" viewBox="0 0 1200 1200">
  <!-- Generator: Adobe Illustrator 29.1.0, SVG Export Plug-In . SVG Version: 2.1.0 Build 142)  -->
  <defs>
    <style>
      .st0 {
        mask: url(#mask);
      }

      .st1 {
        filter: url(#luminosity-noclip);
      }

      .st2 {
        fill-rule: evenodd;
      }

      .st2, .st3, .st4 {
        fill: #95acc8;
      }

      .st5 {
        stroke-width: 10.95px;
      }

      .st5, .st6 {
        stroke-linecap: round;
        stroke-linejoin: round;
      }

      .st5, .st6, .st7, .st8 {
        stroke: #262262;
      }

      .st5, .st6, .st8 {
        fill: none;
      }

      .st9 {
        filter: url(#luminosity-noclip2);
      }

      .st6 {
        stroke-width: 3.67px;
      }

      .st10 {
        fill: url(#_ÂÁ_Ï_ÌÌ_È_ËÂÌÚ_3);
      }

      .st11 {
        mask: url(#mask-2);
      }

      .st12 {
        mask: url(#mask-3);
      }

      .st13 {
        mask: url(#mask-1);
      }

      .st14, .st7 {
        fill: #fff;
      }

      .st15 {
        fill: #262262;
      }

      .st4 {
        opacity: .41;
        stroke: #ed1c24;
        stroke-width: 3.14px;
      }

      .st4, .st7, .st8 {
        stroke-miterlimit: 10;
      }

      .st16 {
        opacity: .45;
      }

      .st7, .st8 {
        stroke-width: 5.67px;
      }

      .st17 {
        fill: url(#New_Gradient_Swatch_copy_2);
      }

      .st17, .st18 {
        mix-blend-mode: multiply;
      }

      .st18 {
        fill: url(#New_Gradient_Swatch_2);
      }
    </style>
    <filter id="luminosity-noclip" x="128.15" y="277.42" width="815" height="815" color-interpolation-filters="sRGB" filterUnits="userSpaceOnUse">
      <feFlood flood-color="#fff" result="bg"/>
      <feBlend in="SourceGraphic" in2="bg"/>
    </filter>
    <filter id="luminosity-noclip1" x="128.15" y="-8792" width="815" height="32766" color-interpolation-filters="sRGB" filterUnits="userSpaceOnUse">
      <feFlood flood-color="#fff" result="bg"/>
      <feBlend in="SourceGraphic" in2="bg"/>
    </filter>
    <mask id="mask-1" x="128.15" y="-8792" width="815" height="32766" maskUnits="userSpaceOnUse"/>
    <radialGradient id="New_Gradient_Swatch_2" data-name="New Gradient Swatch 2" cx="541.53" cy="702.34" fx="541.53" fy="702.34" r="407.51" gradientTransform="translate(34.6 -46.84) rotate(3.23)" gradientUnits="userSpaceOnUse">
      <stop offset=".57" stop-color="#000"/>
      <stop offset=".6" stop-color="#0f0f0f"/>
      <stop offset=".66" stop-color="#363636"/>
      <stop offset=".74" stop-color="#767676"/>
      <stop offset=".8" stop-color="#a6a6a6"/>
      <stop offset=".8" stop-color="#a9a9a9"/>
      <stop offset=".86" stop-color="#c9c9c9"/>
      <stop offset=".91" stop-color="#dfdfdf"/>
      <stop offset=".96" stop-color="#ededed"/>
      <stop offset="1" stop-color="#f2f2f2"/>
    </radialGradient>
    <mask id="mask" x="128.15" y="277.42" width="815" height="815" maskUnits="userSpaceOnUse">
      <g class="st1">
        <g class="st13">
          <path class="st18" d="M535.65,277.42c-224.7,0-407.5,182.8-407.5,407.5,0,224.69,182.8,407.5,407.5,407.5,224.7,0,407.5-182.8,407.5-407.5,0-224.7-182.8-407.5-407.5-407.5Z"/>
        </g>
      </g>
    </mask>
    <filter id="luminosity-noclip2" x="128.15" y="277.42" width="815" height="815" color-interpolation-filters="sRGB" filterUnits="userSpaceOnUse">
      <feFlood flood-color="#fff" result="bg"/>
      <feBlend in="SourceGraphic" in2="bg"/>
    </filter>
    <filter id="luminosity-noclip3" x="128.15" y="-8792" width="815" height="32766" color-interpolation-filters="sRGB" filterUnits="userSpaceOnUse">
      <feFlood flood-color="#fff" result="bg"/>
      <feBlend in="SourceGraphic" in2="bg"/>
    </filter>
    <mask id="mask-3" x="128.15" y="-8792" width="815" height="32766" maskUnits="userSpaceOnUse"/>
    <radialGradient id="New_Gradient_Swatch_copy_2" data-name="New Gradient Swatch copy 2" cx="541.53" cy="702.34" fx="541.53" fy="702.34" r="407.51" gradientTransform="translate(34.6 -46.84) rotate(3.23)" gradientUnits="userSpaceOnUse">
      <stop offset=".57" stop-color="#fff"/>
      <stop offset=".74" stop-color="#fdfdfd"/>
      <stop offset=".8" stop-color="#f6f6f6"/>
      <stop offset=".85" stop-color="#eaeaea"/>
      <stop offset=".88" stop-color="#d9d9d9"/>
      <stop offset=".91" stop-color="#c3c3c3"/>
      <stop offset=".94" stop-color="#a8a8a8"/>
      <stop offset=".97" stop-color="#888"/>
      <stop offset=".99" stop-color="#636363"/>
      <stop offset="1" stop-color="#4d4d4d"/>
      <stop offset="1" stop-color="#505050"/>
      <stop offset="1" stop-color="#595959"/>
      <stop offset="1" stop-color="#696969"/>
      <stop offset="1" stop-color="gray"/>
      <stop offset="1" stop-color="#999"/>
    </radialGradient>
    <mask id="mask-2" x="128.15" y="277.42" width="815" height="815" maskUnits="userSpaceOnUse">
      <g class="st9">
        <g class="st12">
          <path class="st17" d="M535.65,277.42c-224.7,0-407.5,182.8-407.5,407.5,0,224.69,182.8,407.5,407.5,407.5,224.7,0,407.5-182.8,407.5-407.5,0-224.7-182.8-407.5-407.5-407.5Z"/>
        </g>
      </g>
    </mask>
    <radialGradient id="_ÂÁ_Ï_ÌÌ_È_ËÂÌÚ_3" data-name="¡ÂÁ˚ÏˇÌÌ˚È „‡‰ËÂÌÚ 3" cx="541.53" cy="702.34" fx="541.53" fy="702.34" r="407.51" gradientTransform="translate(34.6 -46.84) rotate(3.23)" gradientUnits="userSpaceOnUse">
      <stop offset=".39" stop-color="#f1f2f2"/>
      <stop offset=".67" stop-color="#eff0f1"/>
      <stop offset=".77" stop-color="#e8ebee"/>
      <stop offset=".84" stop-color="#dce2e8"/>
      <stop offset=".9" stop-color="#cbd5e0"/>
      <stop offset=".95" stop-color="#b5c4d6"/>
      <stop offset=".99" stop-color="#9bb0ca"/>
      <stop offset="1" stop-color="#95acc8"/>
      <stop offset="1" stop-color="#95acc8"/>
      <stop offset="1" stop-color="#95acc8"/>
    </radialGradient>
  </defs>
  <rect class="st14" width="1200" height="1200"/>
  <g>
    <g>
      <g class="st0">
        <g class="st11">
          <path class="st10" d="M535.65,277.42c-224.7,0-407.5,182.8-407.5,407.5,0,224.69,182.8,407.5,407.5,407.5,224.7,0,407.5-182.8,407.5-407.5,0-224.7-182.8-407.5-407.5-407.5Z"/>
        </g>
      </g>
      <g class="st16">
        <path class="st2" d="M705.99,425.87c1.55-.92,3.8-1.32,5-.9,1.2.42,4.29.58,4.49.64.21.06.62-.07.46-.44-.15-.37-.52-1.59-.47-1.9.05-.3-.74-.94-1.87-.72-1.13.22-4.17.6-4.25.38-.08-.22,1.08-.95,2.75-1.12,1.67-.17,6.06-.71,6.06-.82,0-.11,0-.33,0-.48,0-.15-1.2-1.28-1.28-2.75-.08-1.47-.37-2.76-.63-2.86-.26-.1-1.01-.84-1.4-.67-.39.17-1.34.57-1.24.49.1-.08-.36-1.24-.04-1.45.32-.21,1.21-1.82,1.32-1.87.11-.04.23-1.4-.02-1.16-.25.24-.94.69-.95.46-.01-.23-.19-.4-.39-.39-.2.01.05-.32.55-.75.5-.42,3.09-3.59,4.7-3.68,1.61-.09,3.49-1.07,4.18-2.17.69-1.1,4.74-3,4.8-3.15.06-.15.2-.84.18-1.18-.02-.34-.7-.64-1.5-.67-.81-.03-3-.23-3.07-.38-.08-.15.46-.58,1.37-.63.9-.05,1.55-.64,1.43-1.31-.12-.67-.2-3.53.08-3.32.28.21,1.3.47,1.63.12.33-.35,1.62-1.09,1.76-1.56.13-.47-.21-2.39.07-2.33.27.06.78.08.52-.09-.26-.17-1.76-.25-1.78-.59-.02-.34.62-.65,1.43-.7.8-.05,1.47-.62,1.49-1.29.02-.66-1.44-2.26-1.59-2.56-.15-.29-1.4-.81-2.44-.5-1.04.32-5.39,1.01-5.47.94-.07-.07-.22-.48-.18-.74.04-.26-.49-2.8-2.09-2.71-1.61.09-1-1.05,1.35-2.53,2.35-1.48,6.01-3.11,5.98-3.44-.03-.34,2.15-1.87,3.97-2.35,1.82-.47,5.02-.94,5.01-1.05,0-.11-.45-.24-.99-.29-.54-.05-1.86-.36-1.74-.59.12-.23-.77-.84-2.25-.83-1.48,0,.75-1.21,8.22-2.73,7.48-1.52,16.87-3.58,16.9-4.19.03-.61-1.92-2.41-4.41-2.67-2.49-.26-10.13-.46-10.14-.44,0,.02-.08.07-.14.04-.06-.02-1.07-.07-2.11-.05-1.04.02-3.47.23-3.43.26.04.03-.08.15-.38.17-.3.02-.57,0-.6-.02-.03-.03-.25-.07-.44-.05-.19.03-.65.11-.64.12,0,0,.03.03.01.02-.01,0-.74.12-1.58.31l-.56.24-1.91.81c-1.08,1.04-1.87,1.7-1.75,1.46.12-.23-.22-1.05-1.04-1.3-.81-.25-3.23-.27-2.65,0,.58.27.83,1.47-.58,1.55-1.41.08-2.46-.17-2.35-.55.11-.38.41-1.49.4-1.61,0-.11-1.4.6-3.09,1.59-1.69.99-5.31,0-5.4.13-.08.12-.54,1.95-1.07,2.05s-1.91-.18-1.88-.86c.03-.68-.28-2.52-.75-2.57-.47-.05-1.6-.34-1.45-.54.15-.2,1.03-1.02,1.36-1.11.33-.09-.55-.71-2.7-1.15-2.15-.44-6.46-1.1-6.52-2.11-.06-1.02-.19-1.85-.29-1.84-.1,0-.21.45-.25.98-.04.53-.58,1.77-1.13,1.58-.55-.2-2.98-.53-4.18-.31-1.2.22-9.52-1.32-17.91-.76l-26.46.88c-8.41.27-15.46.65-15.67.84-.21.19-3.27,1.46-6.57.57l-1.03.36-2.89,1.02c-3.57.87-6.28,1.26-6.04.86.25-.39-.07-1.07-1.25-.62-1.18.44-5.23.79-4.97.7.26-.09.95-.42.95-.54s-.97.05-2.14.36c-1.17.31-8.45,1.1-8.5,1.41-.05.3-.28,1.3-.4,1.53-.12.23.1.7.76.51.66-.19,2.37-.39,2.34-.03-.04.36,1.71,1.91,1.32,2.16-.39.25-1.41,1-1.4,1.11,0,.11.33.06.73-.11.39-.17,1.39-.32,1.35.06-.05.38-1.1,1.31-2.25,1.22-1.15-.09-3.74-.46-3.21-.64.53-.18.67-.6-.85-.53-1.52.07-7.21.18-7.35-.14-.14-.32-2.05-1.6-4.24-1.27-2.19.33-10.54.53-10.45.9.09.37.21,1.43.08,1.51-.13.08-.71.4-1,.52-.29.12-2.27-1.05-3.81-.65-1.55.4-5.14,2.62-5.24,2.62-.1,0-.28-.09-.39-.21-.12-.12-4.4-1.43-10.84-1.9-6.44-.47-14.28,3.24-14.9,2.9-.62-.34-2.3-1.22-2.33-1.19-.03.03.5,1.25.5,1.37,0,.11-.65.18-1.46.15-.81-.03-3.33-.65-3.81-1.3-.48-.66-4.73-2.62-8.19-2.44-3.45.19-11.3-1.76-11.18-1.7.11.06-.55,1.2-.61,1.28-.06.08-.31.29-.41.3-.1,0-7.05.38-15.45.84,0,0-4.22.23-6.32-.44-1.33-.42-1.1-2-3.38-1.46-8.24,1.95-15.72,3.49-26.22,2.72-1.38-.1-.02-1.81-1.16-1.17-2.19,1.22-6.34,3.28-9.35,3-1.92-.17-3.8-1.62-4.86-1.79-1.95-.31-2.81,2.11-3.88,2.69l-3.85,2.1c-4.04.32-14.09,2.02-22.34,3.77l-19.22.71c-8.12,2.34-15.21,4.73-15.75,5.31-.54.59-1.24,2.39-2.4,2.49-1.16.1-3.34,2.72-3.46,2.88-.13.16.26.97,1.14,1.46.88.49,4.81,3.94,7.87,4.57,3.06.62,7.91,4.11,7.47,4.41-.45.31-1.31,2.91-1.45,2.96-.14.06-2.29-1.61-4.4-1.49-2.11.12-3.82-.19-3.79-.69.02-.5-5.08-4.39-11.91-6.81l-4.16,2.85-.24.15c-.26.16.43,1.29,1.53,2.49,1.1,1.21,2.36,2.78,3.79,3.01,1.42.24,5.22-.04,5.38.47.15.51-.04,1.25.1,1.39.14.14-.15.54-.96.56-.81.02-2.91,1.98-3.04,2.14-.13.16.5.89,1.66,1.28,1.16.39,4.79,1.39,5.46,1.37.68-.02,2.17,2,2.18,2.12,0,.11-1.18.29-2.63.39-1.45.1-7.25.85-7.31.93-.06.08-.22.38-.22.49,0,.11,2.41,1.25,5.34,2.54,2.93,1.28,12.06.81,12.01-.21-.06-1.02-.72-2.06-1.47-2.32-.75-.26-2.87-1.25-3.02-1.62-.16-.37-.57-1.43-.58-1.55,0-.11,1.19-.2,2.65-.2,1.46,0,6.41,1.51,6.23,1.98-.18.47,3.53,3.48,8.96,4.15,5.43.67,23.16.67,23.17.67,0,0,.03-.03.05-.02.02,0,5.55-.44,12.26-1.02,6.71-.58,15.47-4.37,15.28-4.97-.2-.61-1.29-2.2-1.3-2.31,0-.11.64-.24,1.45-.29.8-.05,1.55-.14,1.65-.22.1-.08-.87-1.38-1.17-1.75-.3-.37-1.26-.37-.28-.81.98-.44,4.83-1,4.95-1.23.12-.23.41-1.35.38-1.96-.03-.61-.07-2.53.47-2.49.54.05,1.78-.28,1.57-.82-.22-.54.11-1.48,2.6-1.63,2.5-.15,9.69-4.97,10.38-5.89.69-.92,3.82-3.71,7.24-4.07,3.42-.37,7.25-2.62,7.36-2.68.12-.06,1.51.78,2.64.12,1.13-.65,6.23-1.17,6.19-1.96-.04-.79,1.48-2.1,3.38-2.91,1.9-.81,5.37,1.12,5.45,1.28.08.16-.54,1.5.2,1.62.75.11,5.05.03,5.25.25.21.22,1.14,1.93,1.94,1.81.8-.12,2.81-.62,2.7-.83-.11-.22-.71-1.27-.38-1.36.33-.09,1.11.04,1.01.5-.11.46-2.4,2.34-4.84,3.16-2.45.82-6.01-.48-8.12-.36-2.11.12-3.88.34-3.94.5-.06.15-.16.57-.1.57.06,0-1.9,1.97-5.03,3.43-3.13,1.46-8.36-.56-8.22-.49.14.07-.36.21-1.41.17-1.05-.04-2.93,1.1-3.07,1.52-.14.42.61,2.28,2.17,2.41,1.56.13,3.74,2.8,3.96,2.92.22.12,1.44-1.56,2.44-1.61,1-.06,1.48.61,1.06,1.47-.42.87-3.44,2.69-3.49,3.07-.04.38.71,1.27,1.77,1.13,1.07-.14,3.96-.06,4.05.46.1.52,2.54,2.2,5.21,2.56,2.67.36,13.14.33,13.13.26-.01-.07,4.07-2.67,9.98-5.14l4.48,1.56,6.87,2.39c7.57-.14,13.79-.16,13.83-.03.04.13,1.03,2.08,2.71,2.86,1.68.79,6.22,1.96,7.51,2.65,1.29.68,2.54,6.37,2.63,6.42.08.05.76-.92,1.05-.88.28.05,1.21,2.23,1.8,2.12.6-.11,2.25-.09,2.33.28.09.37.09,1.25-.18,1.12-.27-.13-1.97.03-1.83.1.14.07.62.42.77.64.15.22.11,1.2-.41,1.69-.52.5-2.13,2.45-1.14,3.25.99.8,3.96,2.45,4.03,2.59.07.13-.71,1.31-.18,1.64.53.32,2.33.3,2.28.61-.05.3,1.59,1.66,3.76,2.33,2.17.67,12.67-.32,12.33-.08-.34.25-1.84,1.48-1.8,2.16.04.68-.01,1.24-.11,1.24-.1,0-.4-.04-.68-.1-.27-.06-.93.12-.86.52.07.41,0,2.42.43,2.73.42.32.55.71.29.88-.26.17-.91.65-.86.72.04.06-1.19.64-3.9,1.13-2.72.49-6.04,1.62-6.15,2.43-.11.81-.12,4.38.42,4.43.54.05,1.89,1.08,1.8,2.19-.09,1.12.3,4.5.89,4.4.6-.11,2.83.25,3.63,1.03.8.78,1.9,5.75,2.36,5.64.46-.1,1.86.04,2.08.55.21.5,1.76,3.43,4.59,4.2,2.82.77,4.63,7.6,4.75,7.66.12.06.71-.62,1-.18.29.44.91,1.72.72,1.88-.19.16-.58.71-.44.85.14.14.6.52.7.51.1,0,.24-.05.3-.1.06-.05.72-1.74,1.44-1.45.72.3,2.44,1.04,2.48,1.72.04.68,1.7,1.08,3.69.9,1.99-.18,4.85-1.67,5.06-1.53.21.14.72.7.67.93-.05.23-.75.74-1.43.63-.68-.11-2.51-.22-2.56,0-.05.23.73.68,1.86.48,1.13-.2,5.46-.81,5.34-.69-.12.12,1.41,1.11,1.85.77.44-.34,2.48-1.2,2.17-.65-.3.55-1.27,2.06-1.47,2.15-.2.09-.02.47.83.66.85.19,4.45.28,5.49.9,1.04.62,4.71-1.38,5.04-4.29.32-2.91.66-6.43.74-6.54.08-.11.27-.35-.13-1.47-.4-1.13.37-2.44,2.03-2.5l1.32-.96,1.98-1.45c1.37-2.06,2.24-4.23,1.94-4.82-.3-.59-.76-2.03-.35-1.91.41.13,1.54.28,1.59.05.05-.23-.2-1.03-.68-1.26-.48-.23-1.96-1.48-2.16-1.47-.2.01.34-.14,1.2-.34.86-.2,3.1-1.28,3.06-1.96-.04-.68,1.08-1.36,2.48-1.51,1.4-.16,5.24-.88,5.42-1.27.18-.39.52-2.29.85-2.38.33-.09,1.32-.29,1.45-.22.14.07.51.34.51.45,0,.11-.09.34-.22.49-.13.16-.62.58-.82.6-.2.01-.36.11-.35.23,0,.11,2.43-.88,5.38-2.21,2.95-1.33,13.6-3.56,13.44-4.01-.16-.45-.13-1.91.42-2.27.55-.36,3.53-.56,3.32-.7-.21-.14,1.11-1.22,3.41-2.1,2.29-.88,8.65-2.06,8.68-2.14.03-.08.14-.23.18-.16.04.08.78.25,1.56.23.78-.02,1.82.28,1.95.29.13,0,.8-1.4,1.71-1.56.91-.16,3.16.94,3.61.54.45-.4,1.69-1.28,1.76-1.04.07.23,1.08.88,1.1.54.02-.35.6-1.1.62-.65.03.45,1.11.37,2.41-.18,1.3-.55,3.92-.01,4.04-.32.12-.31.72-1.13,1.08-1.14.36-.01,4.1-4.51,5.65-5.43Z"/>
        <path class="st2" d="M367.81,393.54c.25-.24.39-.74.3-1.12-.09-.37-1.14-1.46-2.14-1.59-1-.13-4.03.51-4.04.45-.01-.07-.76-.6-.76-.53,0,.07-.78.93-.9,1.16-.12.23.67,1.02,2.03,1.22,1.36.2,5.25.66,5.51.42Z"/>
        <path class="st2" d="M336.94,401.08c-.02.44,2,.88,4.48.96,2.49.09,8.56.34,7.96.37-.6.03-1.15.13-1.21.21-.06.08-.22.38-.22.5,0,.11,2.45.3,5.44.41,2.99.11,11.09-.5,11.15-.73.05-.23-5.2-1.94-11.79-3.3-6.59-1.35-18.46-2.65-18.6-2.42-.14.23.24,2.06.94,2.02.7-.04,1.87,1.54,1.85,1.98Z"/>
        <path class="st2" d="M310.06,409.96c2.07-1,4.12-2.72,4.56-3.81.44-1.1,2.94-3.13,2.91-3.58-.03-.45-1.26-.94-2.75-1.08-1.49-.14-6.84-.14-8.59.32-1.75.46-6.9,1.51-6.81,2.18.08.67,8.61,6.97,10.68,5.97Z"/>
        <path class="st2" d="M295.4,407.41c1.44-.01,2.67-.21,2.72-.44.05-.23-.47-.98-1.29-1.17-.82-.18-3.44-.43-4.01-.14-.58.28-2.28.36-2.36.71-.08.35,3.5,1.05,4.94,1.04Z"/>
        <path class="st2" d="M338.15,408.16c1.73.05,3.18-.29,3.22-.75.04-.46-.77-1.95-1.9-2.29-1.13-.35-6.12-.49-6.18-.41-.06.08,3.14,3.41,4.87,3.45Z"/>
        <path class="st2" d="M265.43,418.48c4.14-.56,9.29-.65,11.45-.2,2.16.45,5.36-2.17,6.07-2.21.7-.04,1.07.29.81.73-.25.44-2.48,1.8-2.66,2.27-.18.46-.63,1.78-.62,1.89,0,.11,4.86.97,10.78,1.9l7.74,1.8,2.8.65c7.53-1.64,13.55-3.02,13.39-3.05-.16-.04-.26-.15.14-.17.4-.02.73,0,.73.03,0,.04,1.77-.36,3.93-.88,2.16-.53,6.22-.95,6.26-.38.03.57,2.03.17,4.44-.89,2.41-1.05,4.86-1.79,5.19-2.18.33-.38-2.56-2.35-6.95-1.92l-2.31-1.43-2.05-1.27c-1.82-1.63-4.68-2.59-6.34-2.13-1.67.46-4.28,1.95-3.51,2.78.77.83,1.51,3.13-.18,3.07-1.69-.07-4.25.07-4.28-.49-.03-.57-1.99-1.23-4.36-1.47-2.36-.24-8.77-1-8.98-1.14-.21-.14-.27-.6.33-.71.6-.11,2.17-.49,2.16-.6,0-.11-.08-.39-.16-.61-.08-.22-1.69-.73-3.39-.63-1.71.1-3.04.42-2.95.72.08.3-.45,1.25-1.38,1.45-.93.2-3.38.65-3.39.54,0-.11.33-.75.75-1.41.42-.66.08-3.5-1.27-3.58-1.35-.08-8.22-.35-12.27-.45l-2.81,1.58-5.11,2.87c-6.02,2.55-10.94,4.91-10.92,5.25.02.34,4.77.85,8.91.29Z"/>
        <path class="st2" d="M350.44,408.14c-1.23.27-.41.14-1.48-.33-.22,1.67.64,1.26,1.48.33Z"/>
        <path class="st2" d="M370.13,406.62c-.2.01-.51.28-.7.59-.18.31-4.66.89-9.54.58-4.88-.31-11.08,4.12-12.92,3.67-1.83-.45-7.92-2.08-8.04-1.85-.12.23-.17,1.4.15,2.06.32.67,1.9,2,2.05,2.06.14.06,2.28.19,2.71.69.43.5.85,1.44-.04.96-.88-.48-4.35,1.64-4.52,1.67-.17.03,1.11,1.55,3.32,1.43,2.21-.12,3.9-.45,3.77-.72-.14-.27.6-1.77.72-2.01.12-.23,1.78-.66,3.41-.42,1.63.23,7.9.46,9.98,1.17,2.07.71,10.89.15,10.79-.1-.1-.25,1.4-2.6,1.21-4.22-.19-1.62-2.8-3.79-2.62-4.18.18-.39.49-1.4.29-1.39Z"/>
        <path class="st2" d="M347.3,417.39c.63-.58.19-.45.32-.84-.11.28-.21.56-.32.84Z"/>
        <path class="st3" d="M678.04,810.25c-.1.12-3.54-2.58-6.7-4.54-3.16-1.95-16.71-5.91-19.32-5.76-2.61.15-6.81-.12-9.32-.58-2.52-.47-8.19-4.16-11.54-7.45-3.35-3.29-13.75-.76-13.85-1.29-.1-.53-1.41-2.23-2.7-2.62-1.29-.39-3.88-1.49-4.25-2.57-.37-1.09-1.12-6.84-1.81-7.12-.69-.27-4.99-5.54-8.35-8.63-3.36-3.09-13.62-11.5-16.41-11.43-2.79.07-7.56-.03-8.29-1.25-.73-1.22-6.01-2.91-6.15-3.61-.15-.71-1.75-3.91-3.94-5.24-2.19-1.33-6.79-2.9-7.11-4.07-.33-1.16-3.39-3.38-2.99-3.84.41-.47,1.96-1.69,1.82-2.08-.14-.39-.8-2.91-1.39-2.84-.59.08-1.9-.43-2.29,1.06-.39,1.49-1.23,3.52-1.8,3.47-.57-.06-2.25-1.78-2.55-1.76s.05-.13.78-.32c.73-.19,1.44-1.05-.05-1.48-1.48-.43-6.05-.44-5.92-.52.13-.08.25-.6-.03-.97-.27-.37-2.6-.81-2.7-.81-.1,0-.14.75-.09,1.66.05.9.01,1.65-.09,1.66-.1,0-.69-.15-1.3-.34-.62-.19-2.23-.63-2.23-.55,0,.08.83.94.45,1.34-.38.4-1.7,1.11-2.1.68-.39-.43-3.01-1.02-4.75-.84-1.74.17-6.52.31-6.78-.09-.26-.4-.72-3.05-1.46-3.16-.74-.11-2.55-.53-2.36-.69.19-.16-.28-.3-1.47.05-1.19.35-3.49-3.19-4.76-1.57-1.28,1.61-5.71,5.09-5.8,4.77-.09-.32-.31-1.64.14-1.89.46-.25,1.63-1.38,1.6-1.95-.03-.57-1.11-2.88-2.4-5.14l-.76.99-3.92,5.06c-7.78,3.22-13.99,6.54-13.79,7.39.19.84-.63,5-1.83,5.97-1.19.97-3.82,3.19-4.81,2.34-.99-.85-5.67-2.72-8.22-2.26-2.55.46-11.61-.07-14.26-3.63-2.64-3.56-7.07-25.86-8.67-26.78-1.6-.92-5.29-2.74-7.83-2.52-2.54.23-9.24,1.37-9.78.61-.54-.76-2.26-1.19-2.45-1.03-.19.16-.78.59-.88.6-.1,0,.59-2.93,1.54-6.52.95-3.59,2.27-14.83,2.36-14.94.09-.11.92.56,1.33.53.4-.02.9,0,1.1.07.2.07.56-.46.34-1.31-.22-.85-2.85-6.27-4.99-6.85l-1.69-.28-1.8-.3c-3.17,1.31-6.23,2.74-6.78,3.18-.56.44-2.85,2.96-3.67,5.32-.82,2.36-3.03,8.74-4.52,8.8-1.49.06-5.07,1.19-5.28,1.25-.21.06-.99-1.31-1.24-1.36-.25-.04-1.14,1.34-.95,1.25.2-.09.05.13-.77.68-.81.55-3.2.75-3.67.56-.47-.19-2.26-2.42-3.68-2.9-1.42-.48-4.88-5.37-4.62-5.46.26-.09.63-.37.22-.42-.41-.05-2.15-2.88-2.97-6.16-.82-3.28-4.38-14.89-3.88-15.6.5-.71,1.68-4.21,1.53-6.22-.16-2,.28-9.67,1.15-10.35.87-.68,1.56-3.04,1.68-3.02.12.02,2.34.29,3.62-.23,1.29-.51,5.36-6.06,8.95-6.72,3.59-.66,6.99-.79,7.55-.29.57.5,3.54,1.91,5.37,2.03,1.82.12,6.67.39,6.73.31.06-.08.06-1.03-.15-1.93-.2-.9,3.26-4.52,8.12-4.58,4.85-.05,13.31,2.26,13.33,1.89.02-.37,1.33-1.12,1.34-1.18,0-.07,1.34.08,2.16,1.08.81,1,3.65,4.44,3.78,6.39.13,1.95,1.7,7.73,3.36,8.94,1.66,1.21,5.42,7.23,6.12,7.19.19-.01.29.02.43.03-.23-2.55-.88-8.23-1.86-15.05,0,0-.85-5.87-2.52-12.81l-.96-3.99c2.65-3.14,5.75-6.18,6.9-6.76,1.15-.57,3.91-1.1,4.21-1.3.3-.2,2.85-4.43,5.88-6.2,3.04-1.77,9.22-5.42,9.47-5.88.24-.47.52-3.18.08-5-.44-1.81-.47-8.43,1.73-11.88,2.2-3.45,4.54-7.66,4.7-8.48.16-.82,1.47-3.76,3.52-4.13,2.05-.36,5.12-2.43,4.94-2.56-.18-.13.81-.29,3.67-.56,2.86-.27,5.72-.9,5.72-1.35,0-.44-.05-2.98-.31-3.05-.26-.07-1.77-1.24-2.22-2.04-.46-.8-.97-3.51.24-4.72,1.21-1.21,6.26-3.68,6.28-3.22.03.45.28.69.56.53.28-.16,1.79-2.52,3.43-2.86,1.64-.34,5.48-2.23,5.26-2.59-.22-.36.42-1.68,1.91-2.12,1.49-.44,4.67-.86,4.03.19-.64,1.05-4.53,1.96-4.58,2.26-.05.31.36,1.82,1.01,2.69.65.87,3.59,2.51,5.08,1.71,1.49-.8,6.86-5.07,9.54-5.98,2.69-.91,7.15-2.2,7.36-2.06.21.14.92.16,1.1-.27.19-.42,1.13-2.42,2.24-2.76,1.11-.34,3.96-1.87,3.79-2.46-.17-.6-.82-2.03-1.08-1.87-.26.16-1.08.05-1.25-.62-.17-.67-1.12-2.42-1.72-2.38-.6.03-1.7.78-2.43,1.65-.74.87-2.28,5.11-3.13,5.02-.86-.09-3.1,0-2.99-.52.11-.53,2.14-2.19,2.05-2.84l-1.36.03c-2.72.06-10.17-1.95-11.18-3.49l-1.82-2.78c.69-.5,1.62-1.17,2.07-1.5.45-.33,1.75-2.06,1.89-3.13.14-1.06,1.05-3.96,2.64-3.1,1.59.86,8.66.96,8.71.8.06-.15-.64-1.07-1.68-1.69-1.04-.62-3.81-2.54-3.82-2.88-.02-.34,3.95-.01,8.82.72l4.29-2.08,4.64-2.26c4.89-2.58,8.89-4.51,8.91-4.29.01.23-1.46,2.71-3.27,5.52-1.81,2.81-6.79,9.15-6.66,9.25.12.1,1.43.46.75.88-.68.42,1.49,3.4,5.06,2.77,3.57-.63,9.88,2.19,9.7,2.58-.18.39.54,1,1.99.49,1.45-.51,5.24-2.08,5.29-1.17.05.9.45,1.45.88,1.22.43-.23,2.71,1.8,3.3,1.68.59-.12,1.93-2.61,2.12-4.36.19-1.75.75-3.97.31-4.55-.44-.58-2.02-2.03-2.55-1.92-.53.11-2,.2-2.08-.02-.08-.22-.09-1.19.15-1.66.24-.47.88-1.79.87-1.91,0-.11-.91-.37-2.01-.57-1.1-.2-3.9-.27-3.94-.95-.04-.68-.49-.9-1-.49-.51.41-2.28,1.5-2.78,1.53-.5.03-.77-.33-.59-.79.18-.46.06-1.91-.66-2.18-.71-.27-1.66-.46-.81-1.87.85-1.41,1.61-6.21,1.14-6.11-.46.1-1.4-.59-1.06-1.75.35-1.17.56-6.7.38-6.8-.18-.1-1.69-1.47-2.7-1.57-1.01-.1-4.03-.6-4.45-.91-.42-.31-4.16-5.58-8.07-7.17-3.9-1.59-12.21-4.42-12.09-5.59.12-1.18.37-3.84.17-3.53-.19.31-4.19-4.05-7.94-7.93-3.74-3.87-7.29-6.81-7.88-6.53-.59.28-3.76.99-3.93,1.49-.16.5-.64,3.38-1.61,4.08-.96.7-3.21,2.73-3.19,2.72.02,0-.04.07-.13.17-.09.1-.69.54-1.28,1.04-.59.5-3.93.84-5.32.04-1.39-.8-4.24-1.6-4.28-2.28-.04-.68-.48-1.21-.98-1.18-.5.03-1.11-1.65-1.35-3.73-.24-2.08,2.01-6.34,1.94-6.48-.08-.15-.84-.19-1.54.23-.7.42-3.67.53-3.53.75.15.22-.53.85-1.83.93-1.3.07-6.05-2.97-8.62-4.86-2.58-1.89-11.04-2.59-11.03-2.48,0,.11.42.36.91.56.5.19-.18.64-2.5.51-2.33-.13-7.52-.72-7.51-1.18,0-.46,1.24-2.02,1.15-2.39-.09-.37-.98-1.44-1.79-1.55-.81-.11-2.78-.08-2.57.3.21.37.26,1.05-.91.24-1.17-.8-3.15,1.78-2.43,2.26.72.48,3.58,1.28,3.61,1.73.03.45-.71,1.05-1.63,1.33-.92.28-2.95,1.56-2.44,2.23.5.67,1.95,3.47,1.57,3.87-.38.4-.7,2.64.13,4.08.83,1.45,1.58,4.4.01,5.73-1.56,1.33-3.45,2.94-3.42,3.51.03.57,2.14,2.37,4.69,4.01,2.55,1.64,3.68,10.09,1.85,12.13-1.82,2.04-8.82,5.69-8.59,6.22.22.54,2.55,2.79,2.87,4.55.32,1.76,2.18,6.91.87,7.43-1.32.52-4.81,3.23-6.83,1.9-2.02-1.33-4.87-4.76-4.05-4.58.82.18,3.31-.05,3.74-.91l-.91-.9-1.59-1.54c-2.57.59-4.79-1.06-4.94-3.66-.15-2.6-4.79-4.12-10.31-3.37l-4.29-2.2c-5.39-2.77-17.06-4.54-17.06-4.54-8.35-1.27-15.63-4.07-16.17-6.23-.54-2.16-5.02-4.73-5.93-4.58-.91.15-3.69-.48-3.96-.58-.27-.1.82-5.43,2.27-9.82,1.45-4.39,7.84-7.51,8.67-8.64.83-1.13,6.39-2.64,6.93-3.32.54-.68,4.08-4.97,5.78-4.75,1.7.23,6.3-2.77,6.76-2.51.46.26,1.5,3.36,2.77,3.59,1.26.23,5.56-.37,5.8.23.24.59,2.39,1.3,4.26.26,1.87-1.04,6.69-3.86,6.9-3.64.21.21.66.73.52.66-.14-.07-.15.17.28.67.43.51,2.99,1.73,4.74,1.61,1.74-.13,8.47-2.2,8.53-2.36.06-.15-4.21-2.48-9.6-4.84-5.4-2.35-12.72-2.66-12.94-3.1-.23-.44-.83-1.7-.84-1.81,0-.11.96-.07,2.14.09,1.18.16,5.23,1.35,5.63,1.33.4-.02.7-.6.66-1.27-.04-.68-.56-1.21-1.17-1.17-.6.03-1.12-.4-1.15-.97-.03-.56,1.62-1.7,3.68-2.53,2.05-.83,6.87-1.82,7.05-2.14.18-.31.17-1.72-.44-2.42-.61-.71-2.79-2.9-2.81-3.24-.02-.34.4-.77.92-.95.53-.18,1.92-1.07,1.92-1.59,0-.51-.54-3.23-1.34-3.26-.81-.03-3-.29-3.08-.51-.08-.22-.22-.94-.13-1.09.09-.16,1.4-.5,2.93-.43,1.52.07,4.89-.79,6.27-.15,1.38.65,3.62,4.08,4.91,3.8,1.29-.28,4.21-1.05,4.26-1.51.04-.46-.46-1.6-1.2-1.53-.74.07-3.4.88-3.51.28-.1-.6.02-2.14.49-2.09.47.05,1.76-.13,1.8-.52.05-.38,1.15-1.44,2.36-1.51,1.2-.07,2.21.55,2.23,1.37.02.82.52,1.96.53,2.18.01.23.12.08.24-.33.12-.41,2.6-.98,3.51-.42.91.56,3.59,1.29,3.15,1.47-.45.18-2.73.77-2.63,1.38.1.6-.15,2.65-.78,3.23-.63.58-1.62,3.5-1.24,4.31.38.81,3.54,2.66,6.17,2.31,2.63-.35,5.37-4.71,6.52-4.55,1.15.16,4.16.13,4.13-.44-.03-.57.27-1.05.67-1.07.4-.02,1.2.49,1.77,1.14.58.65,1.08,3.19-.14,4.2-1.23,1.01-5.48,3.3-5.43,3,.05-.31-.04-.46-.3.33-.27.79-5.73,4.18-12.37,3.94l-1.45.8-1.65.91c-.61,1.17-1.07,1.95-1.01,1.72.05-.23-.06-.57-.38-.25-.32.32-1.12,1.72-1.09,2.4.04.68,2.54,2.36,5.56,3.73l2.66-.89c2.38-.8,11.76-4.33,14.12-2.86,3.79,2.36,9.35,6.77,12.22,8.8,2.29,1.7,3.36-1.57,6.18-.76l5.29,1.52c4.43.79,8.12,1.56,8.2,1.7.08.15.11.54-.09.55-.2.01-.08.17.27.35.35.18,3.09-.25,3.15-.41.06-.16-.37-1.16-1.08-1.89-.71-.73-1.37-3.16.17-2.86,1.55.3,6.38,1.11,6.29.73-.09-.37-.1-1.31.17-1.25.27.06,1.09.15,1.22.07.13-.08.13-.6-.29-.98-.42-.37-1.29-1.62-.95-1.56.34.06.34-1.9-.74-4.48-1.09-2.57-8.33-4.6-8.22-5.06.11-.46.44-1.68.5-1.69.06-.01,2.18-.09,4.13.82,1.95.91,9.54.4,10.99-1.29,1.45-1.7,5.68-3.89,5.99-4.3.31-.41-3.93-2.67-10.57-4.16-6.64-1.5-14.63-7.49-15.22-7.15-.58.34-2.2.92-2.29.54-.09-.37-.22-1.49-.09-1.65.12-.16,1.12-.55,1.92-.52.81.03,3.03-.14,3.15-.45.12-.31-2.68-2.99-6.48-5.26-3.8-2.27-14.2-3.87-13.94-4.04.26-.16-1.72-1.32-4.97-2.2-3.25-.88-6.37,1.35-6.6,1.23-.23-.12-1.92-2.32-4.65-3.42-2.73-1.1-7.73-2.28-7.76-2.85-.03-.57-1.36-1.51-2.96-2.11-1.6-.59-3.93-2.19-5.33-2.04-1.4.16-5.39.35-5.74.09-.36-.26-1.55-1.75-2.28-1.56-.73.19-2.49.85-2.3,1.03.19.18-1,.12-4.54-.18-3.54-.3-12.36,1.72-13,2.39-.63.67-4.7,1.46-4.44,1.3.26-.16.94-.7.93-.81,0-.11-.54-.46-1.18-.77-.64-.31-1.65-2.22-1.78-2.28-.12-.06-.46-.21-.48-.21s-.73,1.29-.7,1.56c.02.27-3.96,1.41-8.85,2.54-4.89,1.12-10.43,12.12-9.94,12.44.49.32,2.37.78,2.26,1.16-.11.39,2.23,2.18,5.46,3.14,3.23.96,12.61,2.07,12.58,2.47-.03.4-1.42,1.33-.67,1.67.75.35,2.25,2.06,2.45,2.04.2-.01-.4.9-1.33,2.03-.93,1.13-3.69,3.11-3.94,2.5-.25-.61-2.54-1.12-2.44-.52.1.6.56,2.33.8,2.52.24.19.57.99-.06,1.21-.63.22-2.43-.01-2.35.21.08.22-.49.44-1.45,0-.96-.45-2.01-3.1-1.41-3.13.6-.03.84-.73.52-1.54-.31-.81-2.23-3.17-3.56-3.42-1.33-.25-5.78,1-5.94,1.62-.17.61-.71,2.3-.84,2.38-.13.08-.84-.42-1.3-1.3-.45-.88-2.43-3.48-3.39-3.82-.96-.34-4.96-.37-5.04-.51-.07-.15.1-.87.55-1.28.45-.41,1.17-1.31-1.21-2.03l-2.11-2.44-6.97-8.07c-5.12,2.9-9.39,5.28-9.49,5.28-.1,0-.03-1.66.15-3.7.18-2.04-6.57-7.02-10.32-7.23-3.75-.21-12.25.83-12.3,1.06-.05.23-.29,1.09-.41,1.4-.12.31.24,1.27,1.06,1.45.82.18,2.97.75,2.98.86,0,.11-.12.3-.28.42-.16.12-1.85.9-3.2.67-1.36-.22-5.08-.57-5.26-.25-.18.31-.64,1.6-.61,2.17.03.56,2.14,1.13,4.69,1.24,2.55.12,9.08,2.33,9.58,2.83.5.5,3.6,1.36,5.79.79,2.18-.57,7.1-1.26,7.43-.3.32.97.82,3.91.39,4.39-.43.48-2.94,3.2-5.98,3.55-3.03.36-7.03,5.25-6.18,5.49.85.24,3.21.73,3.13.97-.08.25.18,2.35.02,2.24-.16-.1-4.8,1.46-9.77,1.43-4.97-.03-19.27-.95-19.35-1.1-.08-.15-.15-.66,0-.82.15-.16,2.59-1.2,5.31-.95,2.71.25,11.1-2.77,11.15-3,.05-.23-.29-.81-.9-.78-.6.03-1.16-.18-1.25-.48-.08-.3.35-1.06,1.16-1.03.81.03,3.04-.08,3.16-.31.12-.23.48-1.1.53-1.41.05-.31-5.69-1.93-12.86-2.92l-2.15-1.46-2.2-1.49c-2.04-3.31-3.17-6.68-2.51-7.5.66-.81-.93-4.62-4.17-4.31-3.25.31-11.23,1.77-11.29,1.92-.06.15.13,1.47.55,2.57.42,1.11.46,3.45-1.63,2.27-2.09-1.19-8.83-3.09-9.11-2.8-.28.3.51,1.71-.08,1.97-.59.26-4.32.06-6.98-1.03-2.66-1.09-8.39.31-9.26-.56-.87-.87-4.24-2.43-4.23-2.39,0,.04-.61.45-.62.22-.01-.23.02-.41.08-.42.06,0-5.95-.21-13.35-.46-7.4-.25-17.64-3.18-21.05-2.01-3.41,1.17-9.35,1.7-8.89,2.24s1.07,3.33-.41,4.79c-1.48,1.46-4.57,6.9-4.7,6.98-.13.08.82.36,2.4.43,1.58.07,5.56,1.2,6.4,1.83.84.63,5.24,1.75,7.89,1.07,2.66-.68,8.23-1.93,8.27-2.39.04-.46,1.65-2.49,3.49-3.5,1.84-1.01,5.62-2.48,5.29-1.57-.33.9-2.46,2.3-2.43,2.86.03.57.37,1.39.76,1.82.38.44,2.07.73,2.2.76.14.03,2.75,1.89,5.88,2.77,3.14.88,8.88,1.26,6.4,1.87-2.48.62-6.59.46-6.83.62-.24.16.97,2.4,3.3,3.59,2.33,1.18,11.75,2.04,11.79,2.71s-4.58,1.4-10.27,1.6l-5.82-1.1c-5.16-.97-22.73-5.73-25.1-3.53l-2.06,1.91c-1.79.7-3.05,1.02-2.79.71.25-.32.78-1.45.63-1.82-.16-.37-.6-1.09-.65-.79-.05.3-.31.75-.47.3-.16-.45-.89-1.56-1.27-1.49-.38.07-2.86.46-3.6,1.49-.74,1.03-2.91,1.69-4.42.27-1.51-1.42-8.91-2.36-8.92-2.13-.01.23.18,1.83-.21,2.08-.39.25-3.53.54-6.12.08-2.59-.45-5.86-1.82-6.06-1.73-.2.09-.75.57-.8.87-.05.3.03,1.04.29.95.26-.09.96-.24.97-.12,0,.11-3.83.46-8.53.76-4.7.31-14.34,6.28-14.13,6.5.21.21.44.48.03.1-.28-.26-2.64-.25-2.71.04,0,0,0,0,0,0,0,0,0,.01,0,.01-7.61,17.64-21.11,31.14-26.9,49.14,7.27-.21,15.63.24,16.48,1.06.95.92,5.79,1.72,6.28,2.31.49.59,2.2,2.7,3.49,2.91,1.29.22,5.37,1.56,7.14,3.36,1.78,1.8,5.03,6.52,5.47,5.93.44-.59.27-3.18.54-3.27.26-.09.98-.04,1.01.32.03.36,1.12,3.4,1.83,3.36.7-.04,1.18.12,1.06.35-.12.24.05.82.65.79.6-.03,1.17.47,1.26,1.12.09.65,1.15,4.36,1.5,4.64.35.28,1.43.96,1.62.87.19-.08.3-1.74.78-1.52.48.22,1.89,1.51,1.99,1.5.1,0,.31-.6.47-1.33.16-.72-.02-3.3.18-3.39.2-.08,1.79.66,3.1,1.85,1.31,1.19,4.5,1.44,4.2,2.31-.29.87-.93,3.84-.85,3.79.08-.05,1.34,1.9,2.66,3.64l1.79-.1,1.19-.07c.71-.72,1.22-.75,1.12-.06-.1.68,0,2.78.42,3.14.42.35,2.2,1.25,3,1.21.8-.05,1.76.42,2.13,1.02.37.61.95,3.36.41,3.92-.53.56-1.05,3.49-.67,3.8.37.3,3.26,2.94,5.65,3.83,2.39.88,4.75,1.78,4.9,2,.15.22,1.36,1.1,2.36,1.47,1,.37,3.19,1.99,3.33,2.06.14.07.3.48.04.76-.25.28-.66,2.12.1,3.2.76,1.08,3.21,3.92,3.06,4.38-.14.46-.68,2.58-.28,2.63.41.05,1.48,1.18,1.48,2.39,0,1.21-.17,4.28-.38,4.15-.21-.14-1.33,5.76-2.03,13.43l1.1,2.57.18.43c.77.85,1.29,1.64,1.17,1.76-.13.12-.34.38-.17.56.17.18,1.29,2.97,1.81,5.57.53,2.6,2.24,8.64,2.08,8.57-.16-.08.02,1.17,1.41,1.31,1.39.15,2.52,3.98,2.58,3.96.06-.01,1.8,2.12,3.29,5.74l2.2,2.63,1.72,2.06c2.08,2.55,5.15,4.92,6.81,5.25,1.66.34,5.74,1.92,5.99,2.08.25.16.87.98,1.51,1.08.64.1,6.32,7.19,10.51,15.47,0,0,.74,1.46,1.85,3.4l2.08,3.62c3.53,2.28,6.15,4.41,5.84,4.73-.32.32-1.11.98-1.06.75.05-.23-.06-.75-.38-.64-.31.11-1.34,1.21-1.54,1.3-.2.09-.36.58.07.91.43.33,2.93,3.77,4.99,4.7,2.06.93,6.93,3.18,7.61,4.3.68,1.12,1.97,6.05,4.51,7.44,2.54,1.38,6.97,7.07,7.91,6.43.94-.64.43-4.32-.67-5.27-1.09-.95-5.98-5.25-8.74-9.13-2.76-3.88-7.7-17.26-7.72-17.6-.02-.34.06-.64.18-.68.12-.03,1.31-.79,1.45-.72.14.07.48.87.46,1.63-.02.76.86,3.61,2.02,4.67,1.16,1.05,7.94,3.75,8.73,5.28.79,1.53,4.08,4.13,4.15,5.37.07,1.24,3.56,4.78,7.74,7.85,4.19,3.07,12.77,16.61,12.45,16.93-.22.22-.63.57-.85.72-.06.28-.81,1.77-.15,3.19.65,1.39,7.91,7.74,15.19,11.75-.08-.11.78.19,4.37,1.71,7.56,3.21,16.72,6.87,20.34,8.13,3.62,1.26,10.09-2.35,9.9-2.26-.2.09-.67.13-.62-.1.05-.23,2.04-.07,4.28.87,2.25.94,6.05,4.68,5.91,4.61-.14-.07,2.45.59,6.07,1.62,3.61,1.03,10.2,5.44,9.59,5.47-.6.03.61.27,2.71.53,2.09.26,5.05-1.26,5.2-1.11.14.14.47.65.41.8-.06.15,1.1,2.35,2.69,4.54,1.6,2.19,5.01,5.2,5.16,6.37.15,1.17.23,4.3.87,4.59.64.29,2.36,2.14,3.8,2.03,1.44-.11,5.36,2.49,5.56,2.81.2.31,1.91,2.71,3.59,3.26,1.68.54,6.42,1.17,7.17,1.89.74.72,2.65,3.98,3.57,3.63.92-.35,3.29-1.73,3.22-2.28-.07-.54-.85-2.79-.45-2.96.4-.17,1.46-1.52,1.58-1.59.12-.07.57-.86.7-1.02.12-.16,1.22-.59,2.15-.61.93-.02,3.33,3.11,4.02,5.16.69,2.05,3.68,7.73,3.25,10.49-.43,2.76,2.37,10.3,1.94,11-.43.7-2.13,2.72-2.83,2.91-.7.19-2.37,1.69-2.48,1.93-.1.24-.47,2.14-1,2.25-.53.1-1.96.52-1.99.68-.03.16,1.57.76,1.56,1.13,0,.38,0,2.6-.67,3.13-.66.53-4.93,4.03-5.89,7.25-.95,3.22-.55,12.59-.13,12.76.42.17,3.65-.78,3.73-.56.08.22.21,1.19.11,1.65-.1.46-2.42,1.93-3.03,3.16-.61,1.23-3.15,4.97-2.97,5.91.17.94.6,2.76.62,2.76.02,0,.06.1.06.2,0,.1.18.77.38,1.48.21.71,3.02,5.96,5.9,8.28,2.88,2.32,9.78,16.46,12.75,22.93,2.97,6.48,14.28,19.9,18.61,22.21,4.33,2.31,10.52,5.23,10.66,5.62.13.39.1,2.9.26,2.78.16-.12,1.93,4.17,3.38,10.59,1.46,6.42.41,19.03.67,18.94.26-.09.64,4.65.25,10.73-.39,6.08-2.47,11.96-2.56,12.14-.09.18,2.36,8.52,3.62,17.9,0,0,.03.25-2.63,9.37l-2.2,7.53c-3.42,6.56-4.85,15.97-3.18,20.91l-.59,2.02-1.17,3.98c-1.19,8.13-1.76,15.03-1.25,15.34.5.31,2.85.53,2.91.62.06.09-.75.8-.71.92.04.12,1.66-1.06,1.94-2.99.28-1.93-.82-6.36-.52-6.36.29,0,1.13,2.67,1.02,7.58-.11,4.9-1.3,10.09-1.32,10.03-.01-.07-.58-1.65-.76-1.84-.18-.19-1.03-2.05-1.64-2.02s-.94.83-.75,1.76c.19.93.34,4.86-1.07,4.94-1.4.08-2.72.53-2.93,1-.2.47-1.04,2.77-1.2,3.09-.16.32.4,2.2,1.23,2.01.83-.19,3.69-.01,3.39.94-.29.95-.55,2.31-.82,2.14-.27-.17-2.57,1.1-2.75,1.87-.18.77-.57,4.15-.2,5.3.37,1.15,2.93,3.31,2.97,4.1.04.79-.31,1.4-.78,1.35-.47-.05-1.7.19-1.67.64.03.45.47.98.98,1.17.51.19,2.17.71,1.93,2.24-.23,1.53.06,6.9.76,7.07.69.17,2.15-1.55,2.83-1.36.68.19,2.38.82,2.25.98-.13.16-1.41,1.07-1.25,1.6.16.53.95,1.04.1,1.1-.85.06-2.36.22-.86.79,1.49.57,5.17,6.07,6.72,6.14,1.55.06,6.08.71,6.63,1.29.55.59,3.05,3.6,5.46,3.89,2.41.29,10.65,1.53,10.5,1.07-.15-.47.4-1.99,2.09-2.02,1.69-.03,3.75.5,4.01.49.25,0,1.05-1.78,2.12-1.92,1.07-.14,3.84-1.23,3.79-2.14-.05-.9-.34-1.63-.64-1.61-.3.02-.44.09-.3.15.14.07-2.21-.61-5.53-1.65-3.32-1.04-6.48-2.84-6.71-3.43-.23-.59-.67-3-1.27-2.96-.6.03-1.16-.12-1.24-.34-.08-.22-.08-.94.18-1.11.26-.17.01-1.48-1.13-2.55-1.14-1.07-1.61-7.08-1.01-7.31.59-.23,2.15-.87,2.14-.92,0-.05,0-.07.01-.04,0,.03.3,0,.62-.12.32-.12,1.62-2.72,2.18-5.49l.49-.82,1.82-3.04c3.43-1.98,6.25-3.9,6.28-4.25.03-.36.82-2.41.75-2.56-.08-.15-1.43-.85-2.84-1.23-1.41-.38-4.91-1.26-5.42-1.62-.51-.36.18-2.26-.1-2.32-.27-.06.26-1.78,1.78-3.69,1.52-1.91,6.64-2.73,6.82-4.63.18-1.9,1.76-6.41,2.74-6.77.98-.36,4.02-2.44,4.11-3.32.1-.88-.36-3.15-1.17-3.37-.81-.22-2.89,1.23-3.38.95-.49-.28-1.92-1.73-2.1-2.63-.18-.9,3.49-2.29,8.58-1.09,5.09,1.19,7.55-13.11,12.23-14,4.68-.88,11.89-3.06,12.41-4.86.52-1.8,4.35-5.87,4.26-6.6-.09-.73-.86-1.72-1.48-1.93-.62-.21-2.62-3.1-2.47-3.09.15,0-.51-2.06-1.17-3.04-.66-.98-3.13-3.44-3.14-3.55,0-.11,1.9.24,4.23.79,2.33.55,13.37-1.36,15.07-4.21,1.69-2.85,6.24-5.98,5.83-6.87l.57-1.68c.83-2.23,3.18-1.61,5.27-4.01l2.56-2.93c.92-3.27,1.71-5.93,1.75-5.91.04.03.2-.9.07-1.89l.79-1.53,1.02-1.98c1.89-1.77,3.7-5.26,4-7.75.31-2.49.33-7.8,1.65-10.79,1.32-2.98,6.46-5.29,6.37-5.66-.09-.37.1-1.63.62-1.96.52-.33,1.95-.96,2.03-.66.08.3.84.79,1.49.44.65-.36,1.99-1.57,1.99-1.57,0,0,0-.02.01-.02.01,0,.47-.58,1.01-1.28.55-.71,2.75-1.67,2.66-1.49-.09.18,1.26.59,1.18.29-.08-.3.06-.98.51-.85.45.13,2.19.97,2.17.63-.02-.34.99-.86,2.25-1.16,1.26-.3,5.92-3.66,7.55-6.81,1.64-3.15,4.36-6.34,4.25-7.47-.11-1.13,1.68-4.23,1.68-4.24,0-.01.92-1.12.71-2.44-.21-1.32.47-6.25.71-6.75.24-.5,1.03-2.32,1.06-5.66.03-3.34-.1-14.41-.12-14.61-.01-.19-.02-.34,0-.32,0,.01.02-.57.03-1.35,0-.77,2.21-5.43,4.8-8.61,2.59-3.18,5.99-8.23,6.13-8.51.14-.27,1.11-.27.96-1.62l.79-1.3,6.79-11.21c-2.68-7.28-4.96-13.14-5.06-13.02Z"/>
        <path class="st2" d="M258.36,424.89c-.26-.26-.52-.52-.78-.78.56.75.04.25.78.78Z"/>
        <path class="st2" d="M367.18,419.16c-.26-.26-.52-.52-.78-.78.56.75.04.25.78.78Z"/>
        <path class="st2" d="M315.89,422.41c.11.02.2-.02.19-.09,0-.07-.1-.12-.2-.09-.11.03-.1.16.01.18Z"/>
        <path class="st2" d="M454.11,415.07c-.55-.75-.04-.25-.78-.78.26.26.52.52.78.78Z"/>
        <path class="st2" d="M443.14,418.58c.1,0,.17-.29.15-.63-.02-.34-.53-.59-1.13-.55-.6.03-.8.17-.44.3.36.13,1.33.88,1.42.88Z"/>
        <path class="st2" d="M293.29,427.92s-.09-.05-.23-.04-.2.03-.12.06c.08.03.33.02.35-.02Z"/>
        <path class="st2" d="M471.27,422.63c.27.06.49.02.48-.1,0-.11-.34-.19-.74-.16-.4.02-.01.2.26.26Z"/>
        <path class="st2" d="M245.09,436.37c-.1.28-.21.56-.32.84.62-.58.18-.45.32-.84Z"/>
        <path class="st2" d="M342.91,434.83c.13-.16-.02-.27-.32-.26-.3.02-.49.15-.41.3.08.15.6.12.73-.04Z"/>
        <path class="st2" d="M484.09,427c.01.23.07.4.13.39.06-.01.41-.83.21-.82-.2.01-.35.21-.34.43Z"/>
        <path class="st2" d="M696.39,433.44c-.13.08-.09.19.08.24.17.05.95-.58.75-.56-.2.01-.7.24-.84.32Z"/>
        <path class="st2" d="M737.33,457.56c3.59-1.51,6.51-3.2,6.48-3.77s1.52-1.87,3.44-2.89c1.93-1.03,8.12-2.04,8.25-2.48.12-.44.19-3.93-.35-4.62-.54-.69-1.94-2.81-2.52-2.4-.58.41-2.1,1.22-2.08.89.02-.33-.21-1.86.19-1.88.4-.02-.87-.23-2.82-.46-1.95-.23-6.73-1.1-6.64-.65.09.45-1.47,1.74-3.68,1.86-2.21.12-3.99.6-3.97,1.05.03.45-.04.83-.14.83-.1,0-.34-.24-.52-.55-.19-.31-1.67-1.49-3.06-1.04-1.39.45-6.24.54-6.29.58-.05.05-.26,1.23-.33,1.31-.08.08.29.83-.03,1.04-.32.21-1.38,1.79-1.68,1.8-.3.02-.75-.7-1-1.59-.25-.89-1.01-3.26-1.12-3.27-.11-.01-1.32.91-2.82.47-1.5-.45-5.29-1.19-5.08-.68.21.52.69,1.82.01,1.79-.67-.04-2.74.49-3.11,1.26-.36.77-2.81,2.06-2.79,2.51.03.45,1.41.68,3.08.51,1.67-.17,6.23-.63,6.43-.64.2-.01.26.05.13.13-.13.08-1.37.82-2.46,1.45-1.09.62-4.52,1.41-4.58,1.57-.06.15,1.19.21,2.9-.22,1.71-.43,3.76,2.87,3.96,2.86.2-.01.27.17.15.41-.12.23-1.9,1.02-1.89,1.13,0,.11.08.39.16.61.08.23,2.44.18,5.07-.59l3.62.92c2.49.63,5.03,1.59,8.54,1.99l6.54.76Z"/>
        <path class="st2" d="M441.06,462.84c.2-.01.3-.14.23-.29-.08-.15-.32-.41-.38-.25-.06.15-.05.55.15.54Z"/>
        <path class="st2" d="M441.62,474.91c-.33.17-1.09.79-1.71,1.38-.62.59-2.71,2.54-2.7,2.65,0,.11.08.39.16.61.08.22,2.12.25,4.36-.44,2.24-.69,3.91-4.97,2.91-4.92-1,.06-2.69.55-3.01.72Z"/>
        <path class="st2" d="M453.94,474.77c-.08-.15-.19-.14-.24.01-.06.15-.05.55.15.54.2-.01.17-.41.09-.56Z"/>
        <path class="st2" d="M456.9,475.29c-.06.16.06.27.26.26.2-.01.3-.14.23-.29-.08-.15-.43-.13-.49.03Z"/>
        <path class="st2" d="M456.14,476.84c-1.2.07-2.28.5-2.39.96-.11.46-.1,2.03.26,2.46.36.43,1.64,1.56,2.04,1.53.4-.02,1.06-.58,1.46-1.23.4-.66-.16-3.79-1.37-3.72Z"/>
        <path class="st2" d="M522.48,475.71c-.69-.26-1.34-.16-1.45.22-.11.38.04,1.62.6,1.89.55.27,2.24.91,2.53.81.28-.1,1.2-.93,1.12-1.16-.08-.22-2.1-1.5-2.79-1.77Z"/>
        <path class="st2" d="M458.24,481.68c-.55-.75-.04-.25-.77-.78.26.26.52.52.77.78Z"/>
        <path class="st2" d="M509.11,485.27c.14.07.52.05.85-.05.33-.09,1.24-.53,1.3-.76.05-.23.18-1.11.16-1.45-.02-.34-.53-.59-1.13-.56-.6.03-1.19.44-1.29.9-.11.46-.03,1.85.11,1.92Z"/>
        <path class="st2" d="M529.12,485.1c-.26-.26-.52-.52-.78-.78.56.75.04.25.78.78Z"/>
        <path class="st2" d="M516.27,491.6c-.18.01-.25.07-.16.13.09.06.24.1.3.05.05-.05.05-.19-.13-.18Z"/>
        <path class="st2" d="M537.66,493.69c.2-.01.3-.14.23-.29-.07-.15-.32-.41-.38-.25-.06.15-.05.55.15.54Z"/>
        <path class="st2" d="M199.38,515.2c.39.01.71-.07.71-.18,0-.11-.34-.25-.75-.3-.41-.05-.35.46.04.48Z"/>
        <path class="st2" d="M426.58,511.11c-.56-.75-.04-.25-.78-.78.26.26.52.52.78.78Z"/>
        <path class="st2" d="M437.87,513.36c.3-.02.38-.14.17-.28-.21-.14-.75-.32-.74-.1.01.23.27.4.57.38Z"/>
        <path class="st2" d="M409.06,648.45c0-.11-.34-.19-.74-.16-.4.02-.51.09-.24.15.27.06.98.13.98.01Z"/>
        <path class="st2" d="M494.12,691.16c.06-.15-4.33-2.91-9.74-6.12-5.42-3.21-10.61-5.67-11.54-5.47-.93.2-4.99-.89-6.96-2.88l-1.05-.66-.29-.18c-3.66.31-9.06,1.15-12,1.85-2.94.7-7.52,7.06-7.71,7.3-.19.24.76-.22,2.54-1.54,1.77-1.33,9.67-2.76,9.68-2.65,0,.11-.06.36-.14.55-.08.19,5.76,3.12,13.87,5.77,0,0,3.65,1.2,5.83,2.68l.99.67c.27-.19.9-.37,1.4-.4.5-.03.55.4.12.96-.44.56-1.66,1.98-1.74,1.95-.08-.04,2.76.28,6.38,0,3.62-.28,10.32-1.68,10.38-1.83Z"/>
        <path class="st2" d="M491.99,685.91c.08.3.23.54.34.53.1,0,.06-.25-.09-.54-.15-.29-.33-.28-.24.01Z"/>
        <path class="st2" d="M517.67,699.95c1.28-.12,2.43-.29,2.56-.37.13-.08.5-.67.54-1.13.04-.46-.23-2.06-.71-2.56-.47-.49-3.21-.83-3.17-1.21.05-.38-2.44-2.63-5.63-4.15-3.19-1.52-9,.72-8.6.69.4-.02.74.14.75.37.01.23-.65,0-1.47-.51-.82-.51-3.38-1.1-3.36-.89.01.21-1.55.11-1.65.12-.1,0-.06.31.1.68.15.37.12,2.77.38,2.95.26.18,1.91.13,2.13.35.21.21.1,1.42-.73,2.2-.83.78-5.05,2.15-5.23,2.54-.18.39-.09,1.69.6,2.03.69.34,2.56,1.15,2.62,1.04.06-.1.23-.42.22-.5,0-.08.07-.15.15-.16.09,0,2.41.46,5.17,1.04,2.75.58,5.41,1.28,5.37.82-.04-.46,1.74-3.09,1.8-3.25.06-.15.33-.32.48-.03.15.3,6.39.05,7.67-.07Z"/>
        <path class="st2" d="M493.63,693.39c.21-.02.36-.21.35-.44-.01-.23-.35-.39-.75-.37-.4.02.2.82.4.81Z"/>
        <path class="st2" d="M532.97,698.04c.03-.61-.61-1.31-1.43-1.57-.82-.26-3.02-.8-3.07-.63-.05.17.78.63.22.83-.55.2-3.14.58-3.31.97-.18.39-.62,1.54-.57,1.69.04.15,1.09.02,1.18.47.09.45,1.32,1.45,2.51,1.23,1.2-.22,4.44-2.4,4.47-3Z"/>
        <path class="st2" d="M535.75,697.6c-.05.23-.17.4-.25.39-.09-.02-.36-.25-.52-.11-.16.13-.55.93-.32.77.23-.15,1.35,1.77,1.61,1.68.26-.09,1-.58,1.05-.88.05-.3.02-1.34-.17-1.62-.19-.28-1.35-.44-1.4-.21Z"/>
        <path class="st2" d="M497.05,702c0,.14.06.25.13.24.06-.01.48-.83.37-.83-.11,0-.25.05-.31.11-.06.05-.19.33-.18.48Z"/>
        <path class="st2" d="M514.58,701.14c.19-.16.18-.28-.02-.27-.2.01-.41.15-.47.3-.06.15.29.13.49-.03Z"/>
        <path class="st2" d="M502.43,702.95c.49-.12.93-.34.99-.49.06-.15-.11-.55-.52-.52-.4.02-.96,1.13-.47,1.02Z"/>
        <path class="st2" d="M510.85,702.04c.28.13.49.06.48-.16-.01-.23-.35-.39-.75-.37-.4.02,0,.4.27.54Z"/>
        <path class="st2" d="M546.47,701.54c-.4.02-.78.28-.84.58-.06.29,1.11,1.29,1.3,1.05.19-.24.28-.49.21-.56-.07-.07-.21-.39-.15-.54.06-.15-.12-.54-.52-.52Z"/>
        <path class="st2" d="M552.1,703.9c0-.11-.07-.36-.14-.54-.07-.18-1.44-.5-1.48-.12-.05.38.1,1.31.43,1.21.33-.09,1.2-.44,1.19-.55Z"/>
        <path class="st2" d="M553.98,707.03c.05-.31-.24-.6-.65-.65-.41-.05-1.47,0-1.45.22.01.23-.03.32-.09.22-.06-.1-.94,1.13-.9,1.69.03.56.39,1.01.79.98.4-.02.8-.2.89-.4.09-.2,1.36-1.76,1.41-2.06Z"/>
        <path class="st2" d="M555.3,707.73c-.24-.04-.4.4-.37.96.03.57.19.95.35.86.16-.09.26-1.79.02-1.82Z"/>
        <path class="st2" d="M554.75,712c-.04-.79-.3-1.49-.58-1.55-.27-.06-.94.61-.88,1.63.06,1.02.32,1.78.58,1.69.26-.09.92-.98.88-1.77Z"/>
        <path class="st2" d="M555.12,711.98c.02.34.25.54.51.45.26-.09.95-.42.95-.54,0-.11-.23-.26-.51-.32-.27-.06-.97.06-.96.4Z"/>
        <path class="st2" d="M555.59,717.11c.5-.03.9-.33.88-.67-.02-.34-.38-.91-.8-1.26-.42-.36-1.57-.98-1.62-.6-.04.38-.05,1.56.1,1.78.15.22.94.77,1.45.74Z"/>
        <path class="st2" d="M556.65,719.73c-.03-.56-.3-1.01-.61-.99-.3.02-.59.34-.63.72-.04.38.16,1.36.56,1.34.4-.02.7-.5.67-1.07Z"/>
        <path class="st2" d="M555.28,724.56c.1,0,.37-.35.6-.78.23-.42-.97-1.55-1.03-1.4-.06.15-.14.81-.06,1.1.08.3.39,1.08.49,1.07Z"/>
        <path class="st2" d="M523.55,730.27c-.03-.57-.23-1.08-.43-1.15-.21-.06-1.01-.07-1.34.13-.33.2-3.04.22-3.01.67.03.45.77.91,1.64,1.01.88.1,3.17-.09,3.14-.66Z"/>
        <path class="st2" d="M552.51,728.42c-.07,0-.11.38-.08.83.03.45.46.8.96.77.5-.03.72-.47.49-.99-.23-.52-1.3-.62-1.37-.61Z"/>
        <path class="st2" d="M558.73,732.75c.05-.3-.24-.54-.64-.51-.4.02-.83.23-.95.46-.12.23-.44.94-.43,1.05,0,.11.42.18.92.16.5-.03,1.04-.86,1.09-1.16Z"/>
        <path class="st2" d="M531.47,734.3c0-.08-.17-.14-.37-.12-.2.01-.41.15-.47.3-.06.16.85-.1.84-.18Z"/>
        <path class="st2" d="M544.88,735.05c.1,0,.12-.19.04-.42-.08-.22-.27-.53-.25-.19.02.34.12.61.22.61Z"/>
        <path class="st2" d="M549.01,733.57l-.73.04c.67.34.11.4.73-.04Z"/>
        <path class="st2" d="M526,736.3c.26.11.55.2.65.19.1,0,.17-.2.16-.42-.01-.23-.3-.46-.64-.52-.34-.06-.42.64-.17.75Z"/>
        <path class="st2" d="M527.9,736.01c-.7-.8,0-.31-1.14-.76.38.25.76.51,1.14.76Z"/>
        <path class="st2" d="M540.87,1049.94c.02.29.11.52.21.52.1,0,.13-.17.06-.36-.07-.19-.26-.7-.27-.7,0,0-.02.25,0,.54Z"/>
      </g>
    </g>
    <path class="st4" d="M590.99,397.59"/>
    <g>
      <path class="st15" d="M848.23,854.92c101.7-55.68,188.74-107.48,233.59-138.21-20.33,78.2-100.04,164.59-213.67,221.04-100.49,49.93-203.62,64.56-277.72,45.81,45.04-17.31,144.49-66.6,257.8-128.64Z"/>
      <g>
        <ellipse class="st14" cx="838.7" cy="848.73" rx="284.46" ry="20.11" transform="translate(-304.55 507.04) rotate(-28.7)"/>
        <path class="st15" d="M592.51,989.53c21.57,0,129.79-50.67,257.31-120.49,66.71-36.52,128.43-72.7,173.79-101.87,22.11-14.22,39.15-26.01,50.64-35.05,16.52-12.99,18.61-17.84,16.64-21.45-.99-1.81-3.01-2.73-5.98-2.73-21.58,0-129.79,50.67-257.31,120.49-66.71,36.52-128.43,72.7-173.79,101.87-22.11,14.22-39.15,26.01-50.64,35.05-16.52,12.99-18.61,17.84-16.64,21.45.99,1.81,3.01,2.73,5.98,2.73ZM1084.78,714.02c-2.31,3.52-13.65,15.63-69.11,51.01-44.76,28.55-104.7,63.6-168.77,98.67-60.95,33.37-120.48,63.92-167.62,86.02-45.53,21.34-77.08,33.62-86.65,33.72,2.31-3.52,13.65-15.63,69.11-51.01,44.76-28.55,104.7-63.6,168.77-98.67,60.95-33.37,120.48-63.92,167.62-86.02,45.53-21.34,77.08-33.62,86.65-33.72Z"/>
      </g>
      <rect class="st15" x="825.86" y="913.39" width="137.46" height="37.8" rx="14.69" ry="14.69" transform="translate(2133.14 1300.35) rotate(150.37)"/>
      <polygon class="st15" points="973.66 1060.49 905.46 934.03 916.43 928.37 987.46 1059.43 973.66 1060.49"/>
      <rect class="st15" x="874.09" y="919.57" width="36.19" height="150.4"/>
      <path class="st15" d="M754.35,751.26l-12.81-18.45c-6.43-9.26-2.64-23.13,8.42-30.81h0c11.06-7.68,25.38-6.39,31.81,2.88l12.81,18.45-40.23,27.93Z"/>
      <rect class="st15" x="906.02" y="613.87" width="3.18" height="256.84" transform="translate(27.88 1517.41) rotate(-80.66)"/>
      <rect class="st15" x="864.46" y="670.95" width="3.18" height="199.49" transform="translate(-224.44 1164.21) rotate(-61.51)"/>
      <rect class="st15" x="660.07" y="834.69" width="184.72" height="3.18" transform="translate(-111.15 1557.22) rotate(-87.88)"/>
      <rect class="st15" x="604.14" y="847.19" width="220.06" height="3.18" transform="translate(-330.29 1222.39) rotate(-69.6)"/>
    </g>
    <g>
      <path class="st5" d="M653.04,675.82c11.49-21.88,29.04-40.93,51.94-54.35,22.9-13.42,48.09-19.42,72.8-18.76"/>
      <path class="st5" d="M676.9,689.39c9.18-17.86,23.35-33.41,41.92-44.29,18.57-10.88,39.06-15.66,59.13-14.94"/>
      <path class="st5" d="M778.13,657.57c-15.41-.76-31.19,2.79-45.46,11.15-14.27,8.36-25.08,20.4-31.95,34.21"/>
    </g>
    <path class="st15" d="M120.51,680.5l.02-.93.08-3.72.08-3.72.04-1.87.09-1.94.37-7.77c1.21-20.45,3.85-40.76,8.02-60.78,8.3-40.03,22.58-78.75,42.18-114.5,19.58-35.76,44.43-68.53,73.43-97,29.01-28.46,62.17-52.61,98.09-71.39,35.91-18.8,74.57-32.22,114.3-39.68,19.86-3.75,39.99-5.97,60.15-6.78,5.04-.14,10.08-.33,15.13-.29h3.78s.95-.01.95-.01h1.01s1.86.06,1.86.06l7.45.17c10.16.4,20.21,1.03,30.22,2.13,40.07,4.28,79.46,14.51,116.44,30.27,36.98,15.74,71.55,36.98,102.27,62.72,30.74,25.72,57.6,55.96,79.5,89.39,21.91,33.42,38.84,70.04,50.01,108.29,11.2,38.25,16.62,78.1,16.24,117.84-.4-39.73-6.58-79.36-18.46-117.16-11.85-37.81-29.34-73.78-51.64-106.39-22.29-32.62-49.36-61.91-80.06-86.6-30.68-24.71-64.97-44.85-101.4-59.53-36.43-14.7-74.99-23.9-114.01-27.31-9.76-.88-19.56-1.29-29.26-1.5l-7.45-.02h-1.86s-.85,0-.85,0l-.92.02-3.67.08c-4.89.06-9.78.33-14.66.56-19.52,1.17-38.95,3.7-58.07,7.69-38.23,7.95-75.21,21.6-109.35,40.34-34.15,18.71-65.46,42.48-92.65,70.21-27.18,27.73-50.24,59.43-68.17,93.74-17.94,34.3-30.73,71.22-37.83,109.15-3.57,18.96-5.68,38.2-6.45,57.43l-.2,7.12-.05,1.78v1.86s-.02,3.73-.02,3.73v3.73s-.01.93-.01.93c0,.29,0,.12,0,.3v.45s.05,1.81.05,1.81l.16,7.22c.39,9.63.99,19.24,2.05,28.81,4.11,38.27,13.89,75.85,28.95,111.14,15.04,35.29,35.33,68.28,59.92,97.6,24.57,29.34,53.46,54.98,85.38,75.87,31.91,20.9,66.86,37.04,103.36,47.68,36.19,10.58,73.88,15.73,111.52,15.45h0s450.84-7.76,450.84-7.76v52.56l-450.84-7.75v-.03c-41.2-.48-82.33-6.92-121.58-19.23-39.57-12.38-77.2-30.67-111.32-53.98-34.13-23.3-64.76-51.6-90.6-83.7-25.86-32.08-46.95-67.94-62.33-106.07-15.4-38.12-25.05-78.48-28.63-119.31-.92-10.21-1.36-20.44-1.58-30.67l-.03-7.67v-1.92s0-1.11,0-1.11Z"/>
    <g>
      <g>
        <path class="st6" d="M617.29,429.1c-2.58,7.88-7.32,15.16-14.14,20.88-6.82,5.72-14.82,9.11-23.03,10.27"/>
        <path class="st6" d="M608.64,425.95c-2.04,6.42-5.86,12.35-11.39,16.99-5.53,4.64-12.04,7.36-18.72,8.25"/>
        <path class="st6" d="M576.94,442.13c5.14-.61,10.16-2.67,14.41-6.23,4.25-3.56,7.15-8.15,8.65-13.1"/>
      </g>
      <g>
        <rect class="st15" x="443.22" y="213.2" width="80.2" height="183.94" transform="translate(-83.61 378.03) rotate(-39.59)"/>
        <g>
          <path class="st15" d="M560.82,401.52c-27.27,23.01-50.23,44.1-61.71,56.32-.54-27.16,17.01-59.57,47.99-83.34,27.4-21.02,58.79-30.28,83.96-27.1-12.73,7.72-39.86,28.48-70.24,54.12Z"/>
          <g>
            <path class="st14" d="M631.29,346.75c-2.56-3.05-34.59,19.75-71.54,50.92-36.95,31.18-64.82,58.92-62.26,61.97,2.56,3.05,34.59-19.75,71.54-50.92,36.95-31.18,64.82-58.92,62.26-61.97Z"/>
            <path class="st15" d="M629.87,345.48c-6.84.91-36.62,22.51-70.81,51.36-17.89,15.09-34.22,29.86-45.99,41.58-5.74,5.71-10.09,10.4-12.92,13.92-4.08,5.07-4.31,6.78-3.36,7.92.48.57,1.2.79,2.14.67,6.84-.91,36.62-22.51,70.81-51.36,17.89-15.09,34.22-29.86,45.99-41.58,5.74-5.71,10.09-10.4,12.92-13.92,4.08-5.07,4.31-6.78,3.36-7.92-.48-.57-1.2-.79-2.14-.67ZM498.42,458.86c.42-1.28,2.93-5.83,17.35-20.06,11.64-11.49,27.51-25.8,44.69-40.29,16.34-13.79,32.49-26.57,45.46-35.99,12.53-9.1,21.43-14.55,24.46-14.99-.42,1.28-2.93,5.83-17.35,20.07-11.64,11.49-27.51,25.8-44.69,40.29-16.34,13.79-32.49,26.57-45.46,35.99-12.53,9.1-21.43,14.55-24.46,14.99Z"/>
          </g>
        </g>
        <g>
          <path class="st15" d="M582.72,414.9c-2.02-2.44-5.64-2.78-8.08-.76s-2.78,5.64-.76,8.08c2.02,2.44,5.64,2.78,8.08.76,2.44-2.02,2.78-5.64.76-8.08Z"/>
          <polygon class="st15" points="575.24 416.36 552.56 392.26 557.72 387.99 576.62 415.22 575.24 416.36"/>
        </g>
      </g>
      <g>
        <rect class="st7" x="515.84" y="199.9" width="237.89" height="56.92" transform="translate(.08 456.94) rotate(-39.59)"/>
        <g>
          <line class="st8" x1="698.75" y1="212.39" x2="662.47" y2="168.53"/>
          <line class="st8" x1="652.92" y1="250.29" x2="616.64" y2="206.43"/>
          <line class="st8" x1="607.09" y1="288.2" x2="570.81" y2="244.33"/>
        </g>
      </g>
      <g>
        <rect class="st7" x="480.84" y="157.34" width="237.89" height="56.92" transform="translate(19.17 424.88) rotate(-39.59)"/>
        <g>
          <line class="st8" x1="663.75" y1="169.83" x2="627.47" y2="125.97"/>
          <line class="st8" x1="617.92" y1="207.74" x2="581.64" y2="163.87"/>
          <line class="st8" x1="572.09" y1="245.64" x2="535.81" y2="201.77"/>
        </g>
      </g>
      <g>
        <rect class="st14" x="260.52" y="411.06" width="237.89" height="56.92" transform="translate(-193.07 342.66) rotate(-39.59)"/>
        <rect class="st8" x="260.52" y="411.06" width="237.89" height="56.92" transform="translate(-193.07 342.66) rotate(-39.59)"/>
        <line class="st8" x1="443.43" y1="423.55" x2="407.15" y2="379.69"/>
        <line class="st8" x1="397.6" y1="461.45" x2="361.32" y2="417.59"/>
        <line class="st8" x1="351.77" y1="499.36" x2="315.49" y2="455.49"/>
      </g>
      <g>
        <rect class="st14" x="224.31" y="367.04" width="237.89" height="56.92" transform="translate(-173.32 309.49) rotate(-39.59)"/>
        <rect class="st8" x="224.31" y="367.04" width="237.89" height="56.92" transform="translate(-173.32 309.49) rotate(-39.59)"/>
        <line class="st8" x1="407.22" y1="379.53" x2="370.94" y2="335.66"/>
        <line class="st8" x1="361.39" y1="417.43" x2="325.12" y2="373.57"/>
        <line class="st8" x1="315.56" y1="455.33" x2="279.29" y2="411.47"/>
      </g>
    </g>
  </g>
</svg>